<?xml version="1.0" encoding="utf-8"?>
<svg version="1.1" xmlns:xlink="http://www.w3.org/1999/xlink" width="50px" height="43px" xmlns="http://www.w3.org/2000/svg">
  <g transform="matrix(1 0 0 1 0 -173 )">
    <path d="M 9.50520833333333 39.2013221153846  C 9.83506944444444 38.8739983974359  10 38.4863782051282  10 38.0384615384615  L 10 34.7307692307692  C 10 34.2828525641026  9.83506944444444 33.8952323717949  9.50520833333333 33.5679086538462  C 9.17534722222222 33.2405849358974  8.78472222222222 33.0769230769231  8.33333333333333 33.0769230769231  L 5 33.0769230769231  C 4.54861111111111 33.0769230769231  4.15798611111111 33.2405849358974  3.828125 33.5679086538462  C 3.49826388888889 33.8952323717949  3.33333333333333 34.2828525641026  3.33333333333333 34.7307692307692  L 3.33333333333333 38.0384615384615  C 3.33333333333333 38.4863782051282  3.49826388888889 38.8739983974359  3.828125 39.2013221153846  C 4.15798611111111 39.5286458333333  4.54861111111111 39.6923076923077  5 39.6923076923077  L 8.33333333333333 39.6923076923077  C 8.78472222222222 39.6923076923077  9.17534722222222 39.5286458333333  9.50520833333333 39.2013221153846  Z M 9.50520833333333 29.2782451923077  C 9.83506944444444 28.950921474359  10 28.5633012820513  10 28.1153846153846  L 10 24.8076923076923  C 10 24.3597756410256  9.83506944444444 23.9721554487179  9.50520833333333 23.6448317307692  C 9.17534722222222 23.3175080128205  8.78472222222222 23.1538461538462  8.33333333333333 23.1538461538462  L 5 23.1538461538462  C 4.54861111111111 23.1538461538462  4.15798611111111 23.3175080128205  3.828125 23.6448317307692  C 3.49826388888889 23.9721554487179  3.33333333333333 24.3597756410256  3.33333333333333 24.8076923076923  L 3.33333333333333 28.1153846153846  C 3.33333333333333 28.5633012820513  3.49826388888889 28.950921474359  3.828125 29.2782451923077  C 4.15798611111111 29.6055689102564  4.54861111111111 29.7692307692308  5 29.7692307692308  L 8.33333333333333 29.7692307692308  C 8.78472222222222 29.7692307692308  9.17534722222222 29.6055689102564  9.50520833333333 29.2782451923077  Z M 9.50520833333333 19.3551682692308  C 9.83506944444444 19.0278445512821  10 18.6402243589744  10 18.1923076923077  L 10 14.8846153846154  C 10 14.4366987179487  9.83506944444444 14.049078525641  9.50520833333333 13.7217548076923  C 9.17534722222222 13.3944310897436  8.78472222222222 13.2307692307692  8.33333333333333 13.2307692307692  L 5 13.2307692307692  C 4.54861111111111 13.2307692307692  4.15798611111111 13.3944310897436  3.828125 13.7217548076923  C 3.49826388888889 14.049078525641  3.33333333333333 14.4366987179487  3.33333333333333 14.8846153846154  L 3.33333333333333 18.1923076923077  C 3.33333333333333 18.6402243589744  3.49826388888889 19.0278445512821  3.828125 19.3551682692308  C 4.15798611111111 19.6824919871795  4.54861111111111 19.8461538461538  5 19.8461538461538  L 8.33333333333333 19.8461538461538  C 8.78472222222222 19.8461538461538  9.17534722222222 19.6824919871795  9.50520833333333 19.3551682692308  Z M 36.171875 39.2013221153846  C 36.5017361111111 38.8739983974359  36.6666666666667 38.4863782051282  36 38.0384615384615  L 36 24.8076923076923  C 36.6666666666667 24.3597756410256  36.5017361111111 23.9721554487179  36.171875 23.6448317307692  C 35.8420138888889 23.3175080128205  35.4513888888889 23.1538461538462  35 23  L 15 23  C 14.5486111111111 23.1538461538462  14.1579861111111 23.3175080128205  13.828125 23.6448317307692  C 13.4982638888889 23.9721554487179  13.3333333333333 24.3597756410256  14 24.8076923076923  L 14 38.0384615384615  C 13.3333333333333 38.4863782051282  13.4982638888889 38.8739983974359  13.828125 39.2013221153846  C 14.1579861111111 39.5286458333333  14.5486111111111 39.6923076923077  15 39  L 35 39  C 35.4513888888889 39.6923076923077  35.8420138888889 39.5286458333333  36.171875 39.2013221153846  Z M 9.50520833333333 9.43209134615385  C 9.83506944444444 9.10476762820513  10 8.71714743589743  10 8.26923076923077  L 10 4.96153846153846  C 10 4.51362179487179  9.83506944444444 4.1260016025641  9.50520833333333 3.79867788461538  C 9.17534722222222 3.47135416666667  8.78472222222222 3.30769230769231  8.33333333333333 3.30769230769231  L 5 3.30769230769231  C 4.54861111111111 3.30769230769231  4.15798611111111 3.47135416666667  3.828125 3.79867788461538  C 3.49826388888889 4.1260016025641  3.33333333333333 4.51362179487179  3.33333333333333 4.96153846153846  L 3.33333333333333 8.26923076923077  C 3.33333333333333 8.71714743589743  3.49826388888889 9.10476762820513  3.828125 9.43209134615385  C 4.15798611111111 9.75941506410256  4.54861111111111 9.92307692307692  5 9.92307692307692  L 8.33333333333333 9.92307692307692  C 8.78472222222222 9.92307692307692  9.17534722222222 9.75941506410256  9.50520833333333 9.43209134615385  Z M 46.171875 39.2013221153846  C 46.5017361111111 38.8739983974359  46.6666666666667 38.4863782051282  46.6666666666667 38.0384615384615  L 46.6666666666667 34.7307692307692  C 46.6666666666667 34.2828525641026  46.5017361111111 33.8952323717949  46.171875 33.5679086538462  C 45.8420138888889 33.2405849358974  45.4513888888889 33.0769230769231  45 33.0769230769231  L 41.6666666666667 33.0769230769231  C 41.2152777777778 33.0769230769231  40.8246527777778 33.2405849358974  40.4947916666667 33.5679086538462  C 40.1649305555556 33.8952323717949  40 34.2828525641026  40 34.7307692307692  L 40 38.0384615384615  C 40 38.4863782051282  40.1649305555556 38.8739983974359  40.4947916666667 39.2013221153846  C 40.8246527777778 39.5286458333333  41.2152777777778 39.6923076923077  41.6666666666667 39.6923076923077  L 45 39.6923076923077  C 45.4513888888889 39.6923076923077  45.8420138888889 39.5286458333333  46.171875 39.2013221153846  Z M 36.171875 19.3551682692308  C 36.5017361111111 19.0278445512821  36.6666666666667 18.6402243589744  36 18.1923076923077  L 36 4.96153846153846  C 36.6666666666667 4.51362179487179  36.5017361111111 4.1260016025641  36.171875 3.79867788461538  C 35.8420138888889 3.47135416666667  35.4513888888889 3.30769230769231  35 4  L 15 4  C 14.5486111111111 3.30769230769231  14.1579861111111 3.47135416666667  13.828125 3.79867788461538  C 13.4982638888889 4.1260016025641  13.3333333333333 4.51362179487179  14 4.96153846153846  L 14 18.1923076923077  C 13.3333333333333 18.6402243589744  13.4982638888889 19.0278445512821  13.828125 19.3551682692308  C 14.1579861111111 19.6824919871795  14.5486111111111 19.8461538461538  15 20  L 35 20  C 35.4513888888889 19.8461538461538  35.8420138888889 19.6824919871795  36.171875 19.3551682692308  Z M 46.171875 29.2782451923077  C 46.5017361111111 28.950921474359  46.6666666666667 28.5633012820513  46.6666666666667 28.1153846153846  L 46.6666666666667 24.8076923076923  C 46.6666666666667 24.3597756410256  46.5017361111111 23.9721554487179  46.171875 23.6448317307692  C 45.8420138888889 23.3175080128205  45.4513888888889 23.1538461538462  45 23.1538461538462  L 41.6666666666667 23.1538461538462  C 41.2152777777778 23.1538461538462  40.8246527777778 23.3175080128205  40.4947916666667 23.6448317307692  C 40.1649305555556 23.9721554487179  40 24.3597756410256  40 24.8076923076923  L 40 28.1153846153846  C 40 28.5633012820513  40.1649305555556 28.950921474359  40.4947916666667 29.2782451923077  C 40.8246527777778 29.6055689102564  41.2152777777778 29.7692307692308  41.6666666666667 29.7692307692308  L 45 29.7692307692308  C 45.4513888888889 29.7692307692308  45.8420138888889 29.6055689102564  46.171875 29.2782451923077  Z M 46.171875 19.3551682692308  C 46.5017361111111 19.0278445512821  46.6666666666667 18.6402243589744  46.6666666666667 18.1923076923077  L 46.6666666666667 14.8846153846154  C 46.6666666666667 14.4366987179487  46.5017361111111 14.049078525641  46.171875 13.7217548076923  C 45.8420138888889 13.3944310897436  45.4513888888889 13.2307692307692  45 13.2307692307692  L 41.6666666666667 13.2307692307692  C 41.2152777777778 13.2307692307692  40.8246527777778 13.3944310897436  40.4947916666667 13.7217548076923  C 40.1649305555556 14.049078525641  40 14.4366987179487  40 14.8846153846154  L 40 18.1923076923077  C 40 18.6402243589744  40.1649305555556 19.0278445512821  40.4947916666667 19.3551682692308  C 40.8246527777778 19.6824919871795  41.2152777777778 19.8461538461538  41.6666666666667 19.8461538461538  L 45 19.8461538461538  C 45.4513888888889 19.8461538461538  45.8420138888889 19.6824919871795  46.171875 19.3551682692308  Z M 46.171875 9.43209134615385  C 46.5017361111111 9.10476762820513  46.6666666666667 8.71714743589743  46.6666666666667 8.26923076923077  L 46.6666666666667 4.96153846153846  C 46.6666666666667 4.51362179487179  46.5017361111111 4.1260016025641  46.171875 3.79867788461538  C 45.8420138888889 3.47135416666667  45.4513888888889 3.30769230769231  45 3.30769230769231  L 41.6666666666667 3.30769230769231  C 41.2152777777778 3.30769230769231  40.8246527777778 3.47135416666667  40.4947916666667 3.79867788461538  C 40.1649305555556 4.1260016025641  40 4.51362179487179  40 4.96153846153846  L 40 8.26923076923077  C 40 8.71714743589743  40.1649305555556 9.10476762820513  40.4947916666667 9.43209134615385  C 40.8246527777778 9.75941506410256  41.2152777777778 9.92307692307692  41.6666666666667 9.92307692307692  L 45 9.92307692307692  C 45.4513888888889 9.92307692307692  45.8420138888889 9.75941506410256  46.171875 9.43209134615385  Z M 48.7760416666667 1.21454326923077  C 49.5920138888889 2.02423878205128  50 2.99759615384615  50 4.13461538461538  L 50 38.8653846153846  C 50 40.0024038461538  49.5920138888889 40.9757612179487  48.7760416666667 41.7854567307692  C 47.9600694444445 42.5951522435897  46.9791666666667 43  45.8333333333333 43  L 4.16666666666667 43  C 3.02083333333333 43  2.03993055555556 42.5951522435897  1.22395833333333 41.7854567307692  C 0.407986111111111 40.9757612179487  0 40.0024038461538  0 38.8653846153846  L 0 4.13461538461538  C 0 2.99759615384615  0.407986111111111 2.02423878205128  1.22395833333333 1.21454326923077  C 2.03993055555556 0.404847756410251  3.02083333333333 0  4.16666666666667 0  L 45.8333333333333 0  C 46.9791666666667 0  47.9600694444445 0.404847756410251  48.7760416666667 1.21454326923077  Z " fill-rule="nonzero" fill="#000000" stroke="none" transform="matrix(1 0 0 1 0 173 )" />
  </g>
</svg>