<?xml version="1.0" encoding="utf-8"?>
<svg version="1.1" xmlns:xlink="http://www.w3.org/1999/xlink" width="25px" height="27px" xmlns="http://www.w3.org/2000/svg">
  <g transform="matrix(1 0 0 1 -186 -13 )">
    <path d="M 24.3716032608696 11.9403080872914  C 24.7905344202899 12.3446726572529  25 12.8645699614891  25 13.5  C 25 14.1238767650834  24.7905344202899 14.6495507060334  24.3716032608696 15.0770218228498  L 13.3152173913043 26.3587933247754  C 12.8736413043478 26.7862644415918  12.3584692028986 27  11.7697010869565 27  C 11.1922554347826 27  10.6827445652174 26.7862644415918  10.2411684782609 26.3587933247754  L 8.96739130434783 25.0590500641849  C 8.53713768115942 24.620025673941  8.32201086956522 24.094351732991  8.32201086956522 23.482028241335  C 8.32201086956522 22.8697047496791  8.53713768115942 22.3440308087291  8.96739130434783 21.9050064184852  L 13.9436141304348 16.8273427471117  L 1.98709239130435 16.8273427471117  C 1.39832427536232 16.8273427471117  0.91995018115942 16.6107188703466  0.551970108695652 16.1774711168164  C 0.183990036231884 15.7442233632863  0 15.2214377406932  0 14.6091142490372  L 0 12.3908857509628  C 0 11.7785622593068  0.183990036231884 11.2557766367137  0.551970108695652 10.8225288831836  C 0.91995018115942 10.3892811296534  1.39832427536232 10.1726572528883  1.98709239130435 10.1726572528883  L 13.9436141304348 10.1726572528883  L 8.96739130434783 5.07766367137356  C 8.53713768115942 4.6617458279846  8.32201086956522 4.1418485237484  8.32201086956522 3.51797175866496  C 8.32201086956522 2.89409499358152  8.53713768115942 2.37419768934531  8.96739130434783 1.95827984595635  L 10.2411684782609 0.658536585365854  C 10.6714221014493 0.219512195121949  11.1809329710145 0  11.7697010869565 0  C 12.3697916666667 0  12.8849637681159 0.219512195121949  13.3152173913043 0.658536585365854  L 24.3716032608696 11.9403080872914  Z " fill-rule="nonzero" fill="#000000" stroke="none" transform="matrix(1 0 0 1 186 13 )" />
  </g>
</svg>