<?xml version="1.0" encoding="utf-8"?>
<svg version="1.1" xmlns:xlink="http://www.w3.org/1999/xlink" width="21px" height="21px" xmlns="http://www.w3.org/2000/svg">
  <g transform="matrix(1 0 0 1 -826 -1634 )">
    <path d="M 12.974609375 12.974609375  C 13.658203125 12.291015625  14 11.4661458333333  14 10.5  C 14 9.53385416666666  13.658203125 8.708984375  12.974609375 8.025390625  C 12.291015625 7.341796875  11.4661458333333 7  10.5 7  C 9.53385416666667 7  8.708984375 7.341796875  8.025390625 8.025390625  C 7.341796875 8.708984375  7 9.53385416666666  7 10.5  C 7 11.4661458333333  7.341796875 12.291015625  8.025390625 12.974609375  C 8.708984375 13.658203125  9.53385416666667 14  10.5 14  C 11.4661458333333 14  12.291015625 13.658203125  12.974609375 12.974609375  Z M 14.314453125 6.685546875  C 15.3626302083333 7.73372395833333  15.88671875 9.00520833333333  15.88671875 10.5  C 15.88671875 11.9947916666667  15.3626302083333 13.2662760416667  14.314453125 14.314453125  C 13.2662760416667 15.3626302083333  11.9947916666667 15.88671875  10.5 15.88671875  C 9.00520833333333 15.88671875  7.73372395833333 15.3626302083333  6.685546875 14.314453125  C 5.63736979166667 13.2662760416667  5.11328125 11.9947916666667  5.11328125 10.5  C 5.11328125 9.00520833333333  5.63736979166667 7.73372395833333  6.685546875 6.685546875  C 7.73372395833333 5.63736979166667  9.00520833333333 5.11328125  10.5 5.11328125  C 11.9947916666667 5.11328125  13.2662760416667 5.63736979166667  14.314453125 6.685546875  Z M 16.994140625 4.005859375  C 17.240234375 4.251953125  17.36328125 4.54817708333333  17.36328125 4.89453125  C 17.36328125 5.24088541666667  17.240234375 5.537109375  16.994140625 5.783203125  C 16.748046875 6.029296875  16.4518229166667 6.15234375  16.10546875 6.15234375  C 15.7591145833333 6.15234375  15.462890625 6.029296875  15.216796875 5.783203125  C 14.970703125 5.537109375  14.84765625 5.24088541666667  14.84765625 4.89453125  C 14.84765625 4.54817708333333  14.970703125 4.251953125  15.216796875 4.005859375  C 15.462890625 3.759765625  15.7591145833333 3.63671875  16.10546875 3.63671875  C 16.4518229166667 3.63671875  16.748046875 3.759765625  16.994140625 4.005859375  Z M 11.5458984375 1.8798828125  C 10.9124348958333 1.88444010416666  10.5638020833333 1.88671875  10.5 1.88671875  C 10.4361979166667 1.88671875  10.0875651041667 1.88444010416666  9.4541015625 1.8798828125  C 8.82063802083333 1.87532552083333  8.33984375 1.87532552083333  8.01171875 1.8798828125  C 7.68359375 1.88444010416666  7.24381510416667 1.89811197916667  6.6923828125 1.9208984375  C 6.14095052083333 1.94368489583333  5.67154947916667 1.9892578125  5.2841796875 2.0576171875  C 4.89680989583333 2.1259765625  4.57096354166667 2.21028645833333  4.306640625 2.310546875  C 3.85091145833333 2.49283854166667  3.44986979166667 2.75716145833333  3.103515625 3.103515625  C 2.75716145833333 3.44986979166667  2.49283854166667 3.85091145833333  2.310546875 4.306640625  C 2.21028645833333 4.57096354166667  2.1259765625 4.89680989583333  2.0576171875 5.2841796875  C 1.9892578125 5.67154947916667  1.94368489583333 6.14095052083333  1.9208984375 6.6923828125  C 1.89811197916667 7.24381510416667  1.88444010416667 7.68359375  1.8798828125 8.01171875  C 1.87532552083333 8.33984375  1.87532552083333 8.82063802083333  1.8798828125 9.4541015625  C 1.88444010416667 10.0875651041667  1.88671875 10.4361979166667  1.88671875 10.5  C 1.88671875 10.5638020833333  1.88444010416667 10.9124348958333  1.8798828125 11.5458984375  C 1.87532552083333 12.1793619791667  1.87532552083333 12.66015625  1.8798828125 12.98828125  C 1.88444010416667 13.31640625  1.89811197916667 13.7561848958333  1.9208984375 14.3076171875  C 1.94368489583333 14.8590494791667  1.9892578125 15.3284505208333  2.0576171875 15.7158203125  C 2.1259765625 16.1031901041667  2.21028645833333 16.4290364583333  2.310546875 16.693359375  C 2.49283854166667 17.1490885416667  2.75716145833333 17.5501302083333  3.103515625 17.896484375  C 3.44986979166667 18.2428385416667  3.85091145833333 18.5071614583333  4.306640625 18.689453125  C 4.57096354166667 18.7897135416667  4.89680989583333 18.8740234375  5.2841796875 18.9423828125  C 5.67154947916667 19.0107421875  6.14095052083333 19.0563151041667  6.6923828125 19.0791015625  C 7.24381510416667 19.1018880208333  7.68359375 19.1155598958333  8.01171875 19.1201171875  C 8.33984375 19.1246744791667  8.82063802083333 19.1246744791667  9.4541015625 19.1201171875  C 10.0875651041667 19.1155598958333  10.4361979166667 19.11328125  10.5 19.11328125  C 10.5638020833333 19.11328125  10.9124348958333 19.1155598958333  11.5458984375 19.1201171875  C 12.1793619791667 19.1246744791667  12.66015625 19.1246744791667  12.98828125 19.1201171875  C 13.31640625 19.1155598958333  13.7561848958333 19.1018880208333  14.3076171875 19.0791015625  C 14.8590494791667 19.0563151041667  15.3284505208333 19.0107421875  15.7158203125 18.9423828125  C 16.1031901041667 18.8740234375  16.4290364583333 18.7897135416667  16.693359375 18.689453125  C 17.1490885416667 18.5071614583333  17.5501302083333 18.2428385416667  17.896484375 17.896484375  C 18.2428385416667 17.5501302083333  18.5071614583333 17.1490885416667  18.689453125 16.693359375  C 18.7897135416667 16.4290364583333  18.8740234375 16.1031901041667  18.9423828125 15.7158203125  C 19.0107421875 15.3284505208333  19.0563151041667 14.8590494791667  19.0791015625 14.3076171875  C 19.1018880208333 13.7561848958333  19.1155598958333 13.31640625  19.1201171875 12.98828125  C 19.1246744791667 12.66015625  19.1246744791667 12.1793619791667  19.1201171875 11.5458984375  C 19.1155598958333 10.9124348958333  19.11328125 10.5638020833333  19.11328125 10.5  C 19.11328125 10.4361979166667  19.1155598958333 10.0875651041667  19.1201171875 9.4541015625  C 19.1246744791667 8.82063802083333  19.1246744791667 8.33984375  19.1201171875 8.01171875  C 19.1155598958333 7.68359375  19.1018880208333 7.24381510416667  19.0791015625 6.6923828125  C 19.0563151041667 6.14095052083333  19.0107421875 5.67154947916667  18.9423828125 5.2841796875  C 18.8740234375 4.89680989583333  18.7897135416667 4.57096354166667  18.689453125 4.306640625  C 18.5071614583333 3.85091145833333  18.2428385416667 3.44986979166667  17.896484375 3.103515625  C 17.5501302083333 2.75716145833333  17.1490885416667 2.49283854166667  16.693359375 2.310546875  C 16.4290364583333 2.21028645833333  16.1031901041667 2.1259765625  15.7158203125 2.0576171875  C 15.3284505208333 1.9892578125  14.8590494791667 1.94368489583333  14.3076171875 1.9208984375  C 13.7561848958333 1.89811197916667  13.31640625 1.88444010416666  12.98828125 1.8798828125  C 12.66015625 1.87532552083333  12.1793619791667 1.87532552083333  11.5458984375 1.8798828125  Z M 20.931640625 6.166015625  C 20.9772135416667 6.96809895833333  21 8.41276041666667  21 10.5  C 21 12.5872395833333  20.9772135416667 14.0319010416667  20.931640625 14.833984375  C 20.8404947916667 16.7298177083333  20.275390625 18.197265625  19.236328125 19.236328125  C 18.197265625 20.275390625  16.7298177083333 20.8404947916667  14.833984375 20.931640625  C 14.0319010416667 20.9772135416667  12.5872395833333 21  10.5 21  C 8.41276041666667 21  6.96809895833333 20.9772135416667  6.166015625 20.931640625  C 4.27018229166667 20.8404947916667  2.802734375 20.275390625  1.763671875 19.236328125  C 0.724609375 18.197265625  0.159505208333333 16.7298177083333  0.068359375 14.833984375  C 0.0227864583333333 14.0319010416667  0 12.5872395833333  0 10.5  C 0 8.41276041666667  0.0227864583333333 6.96809895833333  0.068359375 6.166015625  C 0.159505208333333 4.27018229166667  0.724609375 2.802734375  1.763671875 1.763671875  C 2.802734375 0.724609375000001  4.27018229166667 0.159505208333332  6.166015625 0.0683593750000008  C 6.96809895833333 0.0227864583333305  8.41276041666667 0  10.5 0  C 12.5872395833333 0  14.0319010416667 0.0227864583333305  14.833984375 0.0683593750000008  C 16.7298177083333 0.159505208333332  18.197265625 0.724609375000001  19.236328125 1.763671875  C 20.275390625 2.802734375  20.8404947916667 4.27018229166667  20.931640625 6.166015625  Z " fill-rule="nonzero" fill="#000000" stroke="none" transform="matrix(1 0 0 1 826 1634 )" />
  </g>
</svg>