<?xml version="1.0" encoding="utf-8"?>
<svg version="1.1" xmlns:xlink="http://www.w3.org/1999/xlink" width="23px" height="50px" xmlns="http://www.w3.org/2000/svg">
  <g transform="matrix(1 0 0 1 -68 -434 )">
    <path d="M 22.3171875 41.5838068181818  C 22.7723958333333 42.0336174242424  23 42.5662878787879  23 43.1818181818182  L 23 47.7272727272727  C 23 48.342803030303  22.7723958333333 48.8754734848485  22.3171875 49.3252840909091  C 21.8619791666667 49.7750946969697  21.3229166666667 50  20.7 50  L 2.3 50  C 1.67708333333333 50  1.13802083333333 49.7750946969697  0.6828125 49.3252840909091  C 0.227604166666667 48.8754734848485  0 48.342803030303  0 47.7272727272727  L 0 43.1818181818182  C 0 42.5662878787879  0.227604166666667 42.0336174242424  0.6828125 41.5838068181818  C 1.13802083333333 41.1339962121212  1.67708333333333 40.9090909090909  2.3 40.9090909090909  L 5 40.9090909090909  L 5 27.2727272727273  L 2.3 27.2727272727273  C 1.67708333333333 27.2727272727273  1.13802083333333 27.047821969697  0.6828125 26.5980113636364  C 0.227604166666667 26.1482007575758  0 25.6155303030303  0 25  L 0 20.4545454545455  C 0 19.8390151515151  0.227604166666667 19.3063446969697  0.6828125 18.8565340909091  C 1.13802083333333 18.4067234848485  1.67708333333333 18.1818181818182  2.3 19  L 16.1 19  C 16.7229166666667 18.1818181818182  17.2619791666667 18.4067234848485  17.7171875 18.8565340909091  C 18.1723958333333 19.3063446969697  18.4 19.8390151515151  18 20.4545454545455  L 18 40.9090909090909  L 20.7 40.9090909090909  C 21.3229166666667 40.9090909090909  21.8619791666667 41.1339962121212  22.3171875 41.5838068181818  Z M 17.7171875 0.674715909090912  C 18.1723958333333 1.12452651515151  18.4 1.65719696969697  18.4 2.27272727272727  L 18.4 9.09090909090909  C 18.4 9.70643939393939  18.1723958333333 10.2391098484848  17.7171875 10.6889204545455  C 17.2619791666667 11.1387310606061  16.7229166666667 11.3636363636364  16.1 11.3636363636364  L 6.9 11.3636363636364  C 6.27708333333333 11.3636363636364  5.73802083333333 11.1387310606061  5.2828125 10.6889204545455  C 4.82760416666667 10.2391098484848  4.6 9.70643939393939  4.6 9.09090909090909  L 4.6 2.27272727272727  C 4.6 1.65719696969697  4.82760416666667 1.12452651515151  5.2828125 0.674715909090912  C 5.73802083333333 0.224905303030298  6.27708333333333 0  6.9 0  L 16.1 0  C 16.7229166666667 0  17.2619791666667 0.224905303030298  17.7171875 0.674715909090912  Z " fill-rule="nonzero" fill="#008855" stroke="none" transform="matrix(1 0 0 1 68 434 )" />
  </g>
</svg>