<?xml version="1.0" encoding="utf-8"?>
<svg version="1.1" xmlns:xlink="http://www.w3.org/1999/xlink" width="36px" height="38px" xmlns="http://www.w3.org/2000/svg">
  <g>
    <path d="M 18 36.3035714285714  C 18.2307692307692 36.3035714285714  18.3461538461539 36.1904761904762  18.3461538461538 35.9642857142857  C 18.3461538461539 35.7380952380952  18.2307692307692 35.625  18 35.625  C 17.1490384615385 35.625  16.4170673076923 35.3245907738095  15.8040865384615 34.7237723214286  C 15.1911057692308 34.1229538690476  14.8846153846154 33.4055059523809  14.8846153846154 32.5714285714286  C 14.8846153846154 32.3452380952381  14.7692307692308 32.2321428571429  14.5384615384615 32.2321428571429  C 14.3076923076923 32.2321428571429  14.1923076923077 32.3452380952381  14.1923076923077 32.5714285714286  C 14.1923076923077 33.6034226190476  14.5637019230769 34.4834449404762  15.3064903846154 35.2114955357143  C 16.0492788461538 35.9395461309524  16.9471153846154 36.3035714285714  18 36.3035714285714  Z M 34.03125 27.9910714285714  C 34.6225961538462 28.6413690476191  35.2788461538462 29.2633928571429  36 29.8571428571429  C 36 30.5922619047619  35.7259615384615 31.2284226190476  35.1778846153846 31.765625  C 34.6298076923077 32.3028273809524  33.9807692307692 32.5714285714286  33.2307692307692 32.5714285714286  L 23.5384615384615 32.5714285714286  C 23.5384615384615 34.0699404761905  22.9975961538462 35.3493303571429  21.9158653846154 36.4095982142857  C 20.8341346153846 37.4698660714286  19.5288461538462 38  18 38  C 16.4711538461538 38  15.1658653846154 37.4698660714286  14.0841346153846 36.4095982142857  C 13.0024038461538 35.3493303571429  12.4615384615385 34.0699404761905  12.4615384615385 32.5714285714286  L 2.76923076923077 32.5714285714286  C 2.01923076923077 32.5714285714286  1.37019230769231 32.3028273809524  0.822115384615385 31.765625  C 0.274038461538462 31.2284226190476  0 30.5922619047619  0 29.8571428571429  C 0.721153846153846 29.2633928571429  1.37740384615385 28.6413690476191  1.96875 27.9910714285714  C 2.56009615384615 27.3407738095238  3.17307692307692 26.49609375  3.80769230769231 25.45703125  C 4.44230769230769 24.41796875  4.97956730769231 23.297619047619  5.41947115384615 22.0959821428571  C 5.859375 20.8943452380952  6.21995192307692 19.4382440476191  6.50120192307692 17.7276785714286  C 6.78245192307692 16.0171130952381  6.92307692307692 14.1793154761905  6.92307692307692 12.2142857142857  C 6.92307692307692 10.0654761904762  7.76682692307692 8.06863839285714  9.45432692307692 6.22377232142857  C 11.1418269230769 4.37890625  13.3557692307692 3.25855654761904  16.0961538461538 2.86272321428571  C 15.9807692307692 2.59412202380952  15.9230769230769 2.31845238095238  15.9230769230769 2.03571428571429  C 15.9230769230769 1.47023809523809  16.125 0.989583333333332  16.5288461538462 0.59375  C 16.9326923076923 0.197916666666668  17.4230769230769 0  18 0  C 18.5769230769231 0  19.0673076923077 0.197916666666668  19.4711538461538 0.59375  C 19.875 0.989583333333332  20.0769230769231 1.47023809523809  20.0769230769231 2.03571428571429  C 20.0769230769231 2.31845238095238  20.0192307692308 2.59412202380952  19.9038461538462 2.86272321428571  C 22.6442307692308 3.25855654761904  24.8581730769231 4.37890625  26.5456730769231 6.22377232142857  C 28.2331730769231 8.06863839285714  29.0769230769231 10.0654761904762  29.0769230769231 12.2142857142857  C 29.0769230769231 14.1793154761905  29.2175480769231 16.0171130952381  29.4987980769231 17.7276785714286  C 29.7800480769231 19.4382440476191  30.140625 20.8943452380952  30.5805288461538 22.0959821428571  C 31.0204326923077 23.297619047619  31.5576923076923 24.41796875  32.1923076923077 25.45703125  C 32.8269230769231 26.49609375  33.4399038461539 27.3407738095238  34.03125 27.9910714285714  Z " fill-rule="nonzero" fill="#000000" stroke="none" />
  </g>
</svg>