<?xml version="1.0" encoding="utf-8"?>
<svg version="1.1" xmlns:xlink="http://www.w3.org/1999/xlink" width="36px" height="39px" xmlns="http://www.w3.org/2000/svg">
  <g transform="matrix(1 0 0 1 -893 -68 )">
    <path d="M 12.8607954545455 14.853515625  C 13.0142045454545 15.005859375  13.0909090909091 15.2005208333333  13 15.4375  L 13 30.0625  C 13.0909090909091 30.2994791666667  13.0142045454545 30.494140625  12.8607954545455 30.646484375  C 12.7073863636364 30.798828125  12.5113636363636 30.875  12.2727272727273 30.875  L 10.6363636363636 30.875  C 10.3977272727273 30.875  10.2017045454545 30.798828125  10.0482954545455 30.646484375  C 9.89488636363636 30.494140625  9.81818181818182 30.2994791666667  10 30.0625  L 10 15.4375  C 9.81818181818182 15.2005208333333  9.89488636363636 15.005859375  10.0482954545455 14.853515625  C 10.2017045454545 14.701171875  10.3977272727273 14.625  10.6363636363636 14.625  L 12.2727272727273 14.625  C 12.5113636363636 14.625  12.7073863636364 14.701171875  12.8607954545455 14.853515625  Z M 19.40625 14.853515625  C 19.5596590909091 15.005859375  19.6363636363636 15.2005208333333  19 15.4375  L 19 30.0625  C 19.6363636363636 30.2994791666667  19.5596590909091 30.494140625  19.40625 30.646484375  C 19.2528409090909 30.798828125  19.0568181818182 30.875  18.8181818181818 30.875  L 17.1818181818182 30.875  C 16.9431818181818 30.875  16.7471590909091 30.798828125  16.59375 30.646484375  C 16.4403409090909 30.494140625  16.3636363636364 30.2994791666667  17 30.0625  L 17 15.4375  C 16.3636363636364 15.2005208333333  16.4403409090909 15.005859375  16.59375 14.853515625  C 16.7471590909091 14.701171875  16.9431818181818 14.625  17.1818181818182 14.625  L 18.8181818181818 14.625  C 19.0568181818182 14.625  19.2528409090909 14.701171875  19.40625 14.853515625  Z M 25.9517045454545 14.853515625  C 26.1051136363636 15.005859375  26.1818181818182 15.2005208333333  26 15.4375  L 26 30.0625  C 26.1818181818182 30.2994791666667  26.1051136363636 30.494140625  25.9517045454545 30.646484375  C 25.7982954545455 30.798828125  25.6022727272727 30.875  25.3636363636364 30.875  L 23.7272727272727 30.875  C 23.4886363636364 30.875  23.2926136363636 30.798828125  23.1392045454545 30.646484375  C 22.9857954545455 30.494140625  22.9090909090909 30.2994791666667  23 30.0625  L 23 15.4375  C 22.9090909090909 15.2005208333333  22.9857954545455 15.005859375  23.1392045454545 14.853515625  C 23.2926136363636 14.701171875  23.4886363636364 14.625  23.7272727272727 14.625  L 25.3636363636364 14.625  C 25.6022727272727 14.625  25.7982954545455 14.701171875  25.9517045454545 14.853515625  Z M 29.2755681818182 34.8486328125  C 29.3948863636364 34.5354817708333  29.4545454545455 34.1927083333333  29 33.8203125  L 29 10  L 7 10  L 7 33.8203125  C 6.54545454545455 34.1927083333333  6.60511363636364 34.5354817708333  6.72443181818182 34.8486328125  C 6.84375 35.1617838541667  6.96732954545455 35.3902994791667  7.09517045454545 35.5341796875  C 7.22301136363636 35.6780598958333  7.3125 35.75  7.36363636363636 35  L 28.6363636363636 35  C 28.6875 35.75  28.7769886363636 35.6780598958333  28.9048295454545 35.5341796875  C 29.0326704545455 35.3902994791667  29.15625 35.1617838541667  29.2755681818182 34.8486328125  Z M 13.5255681818182 3.529296875  L 12.2727272727273 7  L 23.7272727272727 7  L 22.5 3.529296875  C 22.3806818181818 3.376953125  22.2357954545455 3.28385416666666  22.0653409090909 3.25  L 13.9602272727273 3.25  C 13.7897727272727 3.28385416666666  13.6448863636364 3.376953125  13.5255681818182 3.529296875  Z M 35.7698863636364 6.728515625  C 35.9232954545455 6.880859375  36 7.07552083333333  36 7.3125  L 36 8.9375  C 36 9.17447916666666  35.9232954545455 9.369140625  35.7698863636364 9.521484375  C 35.6164772727273 9.673828125  35.4204545454545 9.75  35.1818181818182 9.75  L 32.7272727272727 9.75  L 32.7272727272727 33.8203125  C 32.7272727272727 35.2252604166667  32.3267045454545 36.4397786458333  31.5255681818182 37.4638671875  C 30.7244318181818 38.4879557291667  29.7613636363636 39  28.6363636363636 39  L 7.36363636363636 39  C 6.23863636363636 39  5.27556818181818 38.5048828125  4.47443181818182 37.5146484375  C 3.67329545454546 36.5244140625  3.27272727272727 35.3268229166667  3.27272727272727 33.921875  L 3.27272727272727 9.75  L 0.818181818181818 9.75  C 0.579545454545455 9.75  0.383522727272727 9.673828125  0.230113636363636 9.521484375  C 0.0767045454545454 9.369140625  0 9.17447916666666  0 8.9375  L 0 7.3125  C 0 7.07552083333333  0.0767045454545454 6.880859375  0.230113636363636 6.728515625  C 0.383522727272727 6.576171875  0.579545454545455 6.5  0.818181818181818 6.5  L 8.71875 6.5  L 10.5085227272727 2.259765625  C 10.7642045454545 1.63346354166666  11.2244318181818 1.10026041666666  11.8892045454545 0.660156250000001  C 12.5539772727273 0.220052083333331  13.2272727272727 0  13.9090909090909 0  L 22.0909090909091 0  C 22.7727272727273 0  23.4460227272727 0.220052083333331  24.1107954545455 0.660156250000001  C 24.7755681818182 1.10026041666666  25.2357954545455 1.63346354166666  25.4914772727273 2.259765625  L 27.28125 6.5  L 35.1818181818182 6.5  C 35.4204545454545 6.5  35.6164772727273 6.576171875  35.7698863636364 6.728515625  Z " fill-rule="nonzero" fill="#000000" stroke="none" transform="matrix(1 0 0 1 893 68 )" />
  </g>
</svg>