<?xml version="1.0" encoding="utf-8"?>
<svg version="1.1" xmlns:xlink="http://www.w3.org/1999/xlink" width="300px" height="170px" xmlns="http://www.w3.org/2000/svg">
  <g transform="matrix(1 0 0 1 -320 -114 )">
    <path d="M 320 114  L 620 114  L 620 284  L 320 284  L 320 114  " fill-rule="nonzero" fill="#cccccc" stroke="none" />
    <path d="M 332 126  L 608 126  L 608 272  L 332 272  L 332 126  " fill-rule="nonzero" fill="#ffffff" stroke="none" />
    <path d="M 488.75 165  C 481.61 165  476 159.39  476 152.25  C 476 145.11  481.61 139.5  488.75 139.5  C 495.89 139.5  501.5 145.11  501.5 152.25  C 501.5 159.39  495.89 165  488.75 165  " fill-rule="nonzero" fill="#cccccc" stroke="none" />
    <path d="M 337 268  L 337 192.65  L 403.75 158.4  L 497.2 221.42  L 550.6 178.95  L 604 221.42  L 604 268  L 337 268  " fill-rule="nonzero" fill="#169bd5" stroke="none" />
  </g>
</svg>